<?xml version="1.0" encoding="utf-8"?>
<!-- Generator: Adobe Illustrator 25.3.1, SVG Export Plug-In . SVG Version: 6.00 Build 0)  -->
<svg version="1.1" id="Layer_1" xmlns="http://www.w3.org/2000/svg" xmlns:xlink="http://www.w3.org/1999/xlink" x="0px" y="0px"
	 viewBox="0 0 1000 1000" style="enable-background:new 0 0 1000 1000;" xml:space="preserve">
<style type="text/css">
	.st0{fill:#002B5C;}
	.st1{fill:#E31937;}
</style>
<path class="st0" d="M566.6,586.6v87.8c-15.8,6-49.4,15.7-70.3,20c-18.6-5.4-41.9-13.3-62.1-21.3c-1.7-55.4-2.1-152-2.1-203.6
	c0-39,0.7-107.2,1.4-140.3c22-9,43.7-17.7,66.3-25.3c20.9,6.3,42.4,13.9,62.8,21.9c0.5,27.7,1.3,75.1,1.6,103.9
	c34.9,1.8,76.9-0.8,114.2-5.9c9.3-60.7,24.6-157.8,33.2-224.1c-33.5-6.9-70.4-9.3-113.6-9.8c-2.2,5.7-6.3,16.9-8.4,22.7
	c-23.7-11.8-65.1-30.9-89.4-40.5c-59.4,22.6-141.7,59.3-207.7,93.8c14.2,69,18.2,117.8,18.2,193.1c0,112-10.4,206.1-22.3,283.5
	c54.2,26.5,144.9,64.3,207,85.3c84.4-29.4,163.2-61.3,212.8-86.1c-4.3-36.6-19.1-114-31.1-164.8
	C642.3,578.1,594.7,582.3,566.6,586.6z M495.4,807.5C431,784.9,371.1,760,309.6,731.2c11.2-73.5,20.3-169.3,20.3-272.2
	c0-78.5-4.5-124.3-15.8-182.5c61-31.1,120.9-58.2,185.9-83.6c35.2,14.6,67.7,30,100.2,46.7l11.1-30.1c26.3,0.4,55,2,79.2,6.2
	c-8.9,60.6-19,126.8-28.8,190.8c-31.3,3.6-58.7,5.5-78.4,4.8c-0.3-28.3-1.3-77.7-1.7-98.6c-27-10.5-53.1-20.2-82.1-28.8
	c-25.2,8.6-58,20.9-84.8,32.7c-1.4,52.4-1.1,98.3-1.7,152.8c-0.8,68.4,0.9,153.8,2.4,217c25.9,10.5,52.8,19.6,80.1,27.9
	c32-6.7,61.5-15.8,90.4-26.3v-84.4c26.1-3.3,51.1-5.6,76.1-6.7c10.4,45.8,21.9,107.4,25.5,133.6C626,759.6,561.3,784.4,495.4,807.5z
	"/>
<path class="st1" d="M495.4,807.3c-64.4-22.6-124.3-47.5-185.9-76.3c11.2-73.5,20.3-169.3,20.3-272.2c0-78.5-4.5-124.3-15.8-182.5
	c61-31.1,120.9-58.2,185.9-83.6c35.2,14.6,67.7,30,100.2,46.7l11.1-30.1c26.3,0.4,55,2,79.2,6.2c-8.9,60.6-19,126.8-28.8,190.8
	c-31.3,3.6-58.7,5.5-78.4,4.8c-0.3-28.3-1.3-77.7-1.7-98.6c-27-10.5-53.1-20.2-82.1-28.8c-25.2,8.6-58,20.9-84.8,32.7
	c-1.4,52.4-1.1,98.3-1.7,152.8c-0.8,68.4,0.9,153.8,2.4,217c25.9,10.5,52.8,19.6,80.1,27.9c32-6.7,61.5-15.8,90.4-26.3v-84.4
	c26.1-3.3,51.1-5.6,76.1-6.7c10.4,45.8,21.9,107.4,25.5,133.6C626,759.5,561.3,784.2,495.4,807.3z"/>
</svg>
